PathFileType	4	(X/Y/Z)	D:\TRACE\v60_Jaco2_6-2-23\JustBodyDRS_Motion3_7-v60.trc
DataRate	CameraRate	NumFrames	NumMarkers	Units	OrigDataRate	OrigDataStartFrame	OrigNumFrames
100.00	100.00	      17	9	mm	100.00	3501	      7000
Frame#	Time	front left toe			Front right toe			aft left toe			aft right toe			Arm			FL body			FR body			AL Body			AR Body			
		X1	Y1	Z1	X2	Y2	Z2	X3	Y3	Z3	X4	Y4	Z4	X5	Y5	Z5	X6	Y6	Z6	X7	Y7	Z7	X8	Y8	Z8	X9	Y9	Z9	

3501	35.000	-131.58838	97.81232	-195.41980	241.66777	18.53427	-228.28824	-129.85297	8.33103	398.38443	246.00327	82.95068	425.38690	73.28522	1179.98804	-263.76901	-22.88195	537.79242	-380.01498	135.83961	538.50745	-380.84430	-11.07539	534.44666	564.48895	141.45045	525.80365	563.88501	
3502	35.010	-131.44502	89.21078	-192.34042	241.64417	18.49752	-228.24304	-129.81064	8.28166	398.40997	245.67828	73.80737	429.29852	73.87241	1179.92139	-262.64612	-22.53741	537.69012	-379.04694	135.80200	538.52716	-379.56491	-11.45093	534.40411	565.45190	141.05794	525.70148	565.08679	
3503	35.020	-131.16713	79.86714	-189.28392	241.71606	18.46777	-228.14978	-129.83119	8.29911	398.44751	245.44122	64.66415	433.09879	74.40052	1179.83936	-261.42816	-21.93496	537.48572	-377.84476	136.07164	538.59375	-378.24103	-11.98110	534.40350	566.85400	139.70367	525.87653	566.18591	
3504	35.030	-131.06456	70.10489	-185.96524	241.64015	18.37901	-228.04616	-129.90994	8.35317	398.48679	245.11118	55.73539	436.07111	75.03931	1179.70569	-260.03116	-21.92219	537.54218	-376.67441	136.40175	538.52344	-377.04697	-12.19493	534.25916	567.73035	140.09782	525.80408	566.79919	
3505	35.040	-131.19296	60.34403	-182.86931	241.55063	18.35380	-227.78455	-130.07420	8.43741	398.52209	244.84880	47.07742	438.32425	75.37477	1179.69214	-258.74734	-21.44678	537.42084	-375.57590	137.33714	538.33978	-375.77451	-12.77086	534.52740	569.16718	139.04649	525.96936	568.86975	
3506	35.050	-131.53337	51.93241	-180.67401	241.51941	18.53966	-227.58131	-130.26900	8.43505	398.60910	244.64302	38.72090	439.69946	75.61282	1179.66931	-257.51044	-21.13626	537.43207	-374.25937	137.61797	538.13245	-374.63156	-12.74915	534.40192	570.42822	138.41885	525.82257	570.17010	
3507	35.060	-131.79674	43.75373	-179.08408	241.53061	18.60905	-227.44966	-130.46658	8.40834	398.69046	244.37723	30.51342	440.61145	75.40401	1179.72058	-256.22882	-20.94722	537.43268	-372.91727	137.63809	538.30151	-373.10532	-13.58948	534.00891	571.52515	137.70317	525.56671	571.56561	
3508	35.070	-132.16757	37.17023	-178.72787	241.42120	18.51041	-227.50133	-130.55823	8.26766	398.78439	243.73749	22.96399	440.77618	75.90398	1179.58740	-254.60049	-20.52795	537.58881	-371.98599	138.13974	538.31268	-371.79666	-13.81874	533.59259	572.60632	137.36093	525.06891	572.83392	
3509	35.080	-132.55730	31.14829	-178.92267	241.42540	18.50717	-227.49815	-130.69330	8.24009	398.83847	243.41570	16.12680	440.42627	75.82324	1179.66943	-252.94490	-20.15528	537.67395	-370.43951	137.75592	538.31128	-369.91208	-14.01701	533.05493	573.85382	137.13101	524.61792	574.18231	
3510	35.090	-132.24394	24.74271	-179.05672	241.36273	18.47104	-227.45164	-130.88089	8.21859	398.93832	242.92876	10.14970	439.79285	76.24505	1179.67139	-251.19998	-20.08482	537.77173	-369.45386	138.92923	538.53827	-369.15210	-14.28442	532.75134	575.35925	136.09053	524.46228	575.65997	
3511	35.100	-132.66382	20.15837	-180.23920	241.32037	18.31269	-227.47841	-130.81087	8.24398	399.05188	243.10980	10.09191	438.52225	76.85286	1179.84106	-249.26509	-19.58634	537.84631	-368.13797	138.67171	538.54987	-367.76236	-14.87983	532.47229	576.28192	137.12386	523.78546	576.04913	
3512	35.110	-133.69392	19.53406	-181.28288	241.29323	18.20405	-227.24353	-130.78323	8.30279	399.09488	243.49362	7.73250	438.09680	77.63913	1179.95203	-247.44502	-19.40504	537.54633	-367.12054	138.84113	538.53534	-366.01794	-15.37331	532.99060	577.53778	136.43311	524.67572	578.09558	
3513	35.120	-134.12877	18.56740	-180.66232	241.30180	18.61350	-226.57205	-131.20032	9.07455	399.28186	243.93602	9.17668	439.15332	78.70267	1179.96924	-245.97379	-18.76371	537.99377	-365.85229	139.94649	538.75153	-365.25598	-15.79788	533.83026	578.40393	135.49734	525.51038	579.34595	
3514	35.130	-134.03174	19.17175	-181.20558	241.06769	19.17093	-227.22078	-130.71799	9.72846	398.68497	243.26627	9.16573	440.25558	78.85519	1180.63489	-245.64957	-18.44158	539.38495	-364.69589	139.89394	539.67291	-363.76462	-16.01518	534.66486	579.97723	135.40436	525.73145	580.14752	
3515	35.140	-133.20233	18.29781	-179.90671	240.18010	22.40939	-226.98909	-130.64880	12.07568	398.79034	243.42889	8.22660	439.99216	79.32185	1182.18433	-245.29506	-17.70576	540.92291	-363.56073	140.82976	541.03162	-362.72662	-16.80720	534.19446	580.55072	134.82994	525.72632	581.78656	
3516	35.150	-133.38184	18.90140	-180.42638	238.24782	26.25703	-223.87445	-128.16707	14.87459	401.42514	243.78888	8.21046	439.86600	79.89125	1183.42261	-244.14058	-17.47778	542.10968	-363.08887	140.45815	542.37848	-361.48526	-17.25064	533.76410	581.53625	134.75220	525.19476	582.72522	
3517	35.160	-133.52611	18.27209	-180.77458	235.48956	32.78668	-220.85301	-125.29504	20.64385	402.58807	243.74120	8.23633	439.93155	80.25842	1184.15381	-242.16904	-17.12808	542.44299	-362.21396	141.07645	542.94574	-360.99048	-17.68492	533.53815	582.30383	133.72765	525.15753	583.53363	
